<?xml version="1.0" encoding="utf-8"?>
<!-- Generator: Adobe Illustrator 22.1.0, SVG Export Plug-In . SVG Version: 6.00 Build 0)  -->
<svg version="1.1" id="Layer_1" xmlns="http://www.w3.org/2000/svg" xmlns:xlink="http://www.w3.org/1999/xlink" x="0px" y="0px"
	 viewBox="0 0 503 109" style="enable-background:new 0 0 503 109;" xml:space="preserve">
<style type="text/css">
	.st0{fill:none;stroke:#4AA5A3;stroke-width:2.0239;stroke-linecap:round;stroke-miterlimit:10;}
	.st1{fill:none;stroke:#4D80A1;stroke-width:2.0239;stroke-linecap:round;stroke-miterlimit:10;}
	.st2{fill:none;stroke:#C3B139;stroke-width:2.0239;stroke-linecap:round;stroke-miterlimit:10;}
	.st3{fill:none;stroke:#C6909E;stroke-width:2.0239;stroke-linecap:round;stroke-miterlimit:10;}
	.st4{fill:none;stroke:#457A83;stroke-width:2.0239;stroke-linecap:round;stroke-miterlimit:10;}
	.st5{fill:#221F20;}
</style>
<g>
	<path class="st0" d="M42.2,69.4L54,76.2 M38,48.5v13.6 M38,71.8v13.6"/>
	<line class="st1" x1="22" y1="56.7" x2="33.8" y2="63.5"/>
	<line class="st2" x1="33.8" y1="68.4" x2="22" y2="75.2"/>
	<path class="st0" d="M38,48.5v13.6 M54,57.7l-11.8,6.8"/>
	<line class="st1" x1="38" y1="24.2" x2="38" y2="37.8"/>
	<line class="st0" x1="42.2" y1="46.1" x2="54" y2="52.9"/>
	<line class="st3" x1="22" y1="33.4" x2="33.8" y2="40.2"/>
	<path class="st0" d="M54,34.4l-11.8,6.8 M33.8,46.1L22,52.9"/>
	<line class="st4" x1="78.4" y1="71.8" x2="78.4" y2="85.4"/>
	<line class="st0" x1="78.4" y1="48.5" x2="78.4" y2="62.1"/>
	<line class="st1" x1="82.6" y1="69.4" x2="94.4" y2="76.2"/>
	<path class="st0" d="M78.4,48.5v13.6 M94.4,57.7l-11.8,6.8 M74.2,69.4l-11.8,6.8 M62.4,57.7l11.8,6.8"/>
	<path class="st4" d="M82.6,46.1l11.8,6.8 M78.4,25.2v13.6"/>
	<path class="st0" d="M58.2,60.1v13.6 M58.2,83.5v13.6 M94.4,34.4l-11.8,6.8 M74.2,46.1l-11.8,6.8 M62.4,34.4l11.8,6.8"/>
	<line class="st2" x1="62.3" y1="81.5" x2="74.1" y2="88.3"/>
	<line class="st4" x1="42.2" y1="69.4" x2="54" y2="76.2"/>
	<line class="st3" x1="53.9" y1="81.5" x2="42.1" y2="88.3"/>
	<path class="st0" d="M58.2,36.8v13.6 M58.2,60.1v13.6 M74.2,69.4l-11.8,6.8"/>
	<line class="st3" x1="62.4" y1="57.7" x2="74.2" y2="64.5"/>
	<line class="st4" x1="42.2" y1="46.1" x2="54" y2="52.9"/>
	<line class="st0" x1="54" y1="57.7" x2="42.2" y2="64.5"/>
	<line class="st2" x1="74.2" y1="46.1" x2="62.4" y2="52.9"/>
	<line class="st0" x1="58.2" y1="36.8" x2="58.2" y2="50.4"/>
	<line class="st2" x1="58.2" y1="13.5" x2="58.2" y2="27.1"/>
	<line class="st1" x1="62.4" y1="34.4" x2="74.2" y2="41.2"/>
	<line class="st0" x1="42.2" y1="22.7" x2="54" y2="29.6"/>
	<line class="st2" x1="54" y1="34.4" x2="42.2" y2="41.2"/>
	<line class="st3" x1="74.2" y1="22.7" x2="62.4" y2="29.6"/>
</g>
<g>
	<polygon class="st5" points="136.4,48.5 136.4,64.6 133.5,64.6 133.5,48.5 128.4,48.5 128.4,46 141.5,46 141.5,48.5 	"/>
	<polygon class="st5" points="157.7,64.6 157.7,56.5 150.2,56.5 150.2,64.6 147.3,64.6 147.3,46 150.2,46 150.2,53.9 157.7,53.9 
		157.7,46 160.5,46 160.5,64.6 	"/>
	<polygon class="st5" points="168,64.6 168,46 179.9,46 179.9,48.5 170.9,48.5 170.9,54 178.6,54 178.6,56.5 170.9,56.5 170.9,62.1 
		179.9,62.1 179.9,64.6 	"/>
	<path class="st5" d="M201.3,64.8c-1.9,0-3.6-0.7-4.9-2c-1.8-1.8-1.8-3.9-1.8-7.5c0-3.6,0-5.7,1.8-7.5c1.3-1.3,3-2,4.9-2
		c3.4,0,6,2,6.6,5.7h-2.9c-0.4-1.9-1.7-3.2-3.8-3.2c-1.1,0-2.1,0.4-2.7,1.1c-0.9,1-1.1,2.1-1.1,5.8s0.2,4.8,1.1,5.8
		c0.7,0.7,1.6,1.1,2.7,1.1c2.1,0,3.3-1.3,3.8-3.2h2.9C207.4,62.8,204.7,64.8,201.3,64.8"/>
	<polygon class="st5" points="224.8,64.6 224.8,56.5 217.2,56.5 217.2,64.6 214.4,64.6 214.4,46 217.2,46 217.2,53.9 224.8,53.9 
		224.8,46 227.6,46 227.6,64.6 	"/>
	<rect x="235.1" y="46" class="st5" width="2.8" height="18.6"/>
	<path class="st5" d="M251.4,64.8c-1.9,0-3.6-0.7-4.9-2c-1.8-1.8-1.8-3.9-1.8-7.5c0-3.6,0-5.7,1.8-7.5c1.3-1.3,3-2,4.9-2
		c3.4,0,6,2,6.6,5.7h-2.9c-0.4-1.9-1.7-3.2-3.8-3.2c-1.1,0-2.1,0.4-2.7,1.1c-0.9,1-1.1,2.1-1.1,5.8s0.2,4.8,1.1,5.8
		c0.7,0.7,1.6,1.1,2.7,1.1c2.1,0,3.3-1.3,3.8-3.2h2.9C257.4,62.8,254.8,64.8,251.4,64.8"/>
	<path class="st5" d="M270,50.2l-2.9,8.3h5.7L270,50.2z M274.9,64.6l-1.3-3.7h-7.4l-1.3,3.7h-3l6.8-18.6h2.3l6.8,18.6H274.9z"/>
	<path class="st5" d="M294,62.6c-1.4,1.5-3.2,2.1-5.1,2.1c-1.9,0-3.6-0.7-4.9-2c-1.8-1.8-1.8-3.9-1.8-7.5c0-3.6,0-5.7,1.8-7.5
		c1.3-1.3,2.9-2,4.9-2c4,0,6.3,2.6,6.8,5.8h-2.9c-0.5-2-1.8-3.2-3.9-3.2c-1.1,0-2.1,0.4-2.7,1.2c-0.9,1-1.1,2-1.1,5.8
		c0,3.7,0.2,4.8,1.1,5.8c0.7,0.7,1.6,1.1,2.7,1.1c1.2,0,2.3-0.5,3-1.3c0.7-0.8,0.9-1.7,0.9-2.9v-1h-4v-2.4h6.8v2.9
		C295.7,59.8,295.2,61.3,294,62.6"/>
	<path class="st5" d="M311.3,49.5c-0.7-0.7-1.7-1.2-2.8-1.2c-1.1,0-2.1,0.4-2.8,1.2c-0.9,1-1.1,2-1.1,5.8s0.2,4.8,1.1,5.8
		c0.7,0.7,1.7,1.2,2.8,1.2c1.1,0,2.1-0.4,2.8-1.2c0.9-1,1.1-2,1.1-5.8S312.2,50.5,311.3,49.5 M313.4,62.8c-1.3,1.3-2.9,2-4.9,2
		c-2,0-3.6-0.7-4.9-2c-1.8-1.8-1.8-3.9-1.8-7.5c0-3.6,0-5.7,1.8-7.5c1.3-1.3,2.9-2,4.9-2c2,0,3.6,0.7,4.9,2c1.8,1.8,1.8,3.9,1.8,7.5
		C315.2,58.9,315.2,60.9,313.4,62.8"/>
	<polygon class="st5" points="342.3,64.6 333.7,51.5 333.7,64.6 330.9,64.6 330.9,46 333.5,46 342.1,59.1 342.1,46 344.9,46 
		344.9,64.6 	"/>
	<polygon class="st5" points="352.4,64.6 352.4,46 364.3,46 364.3,48.5 355.2,48.5 355.2,54 363,54 363,56.5 355.2,56.5 355.2,62.1 
		364.3,62.1 364.3,64.6 	"/>
	<polygon class="st5" points="377.1,48.5 377.1,64.6 374.3,64.6 374.3,48.5 369.1,48.5 369.1,46 382.2,46 382.2,48.5 	"/>
	<polygon class="st5" points="403.3,64.6 400.8,64.6 397,51.6 393.2,64.6 390.8,64.6 385.9,46 388.9,46 392.1,59.3 395.9,46 
		398.2,46 401.9,59.3 405.1,46 408.1,46 	"/>
	<path class="st5" d="M422,49.5c-0.7-0.7-1.7-1.2-2.8-1.2c-1.1,0-2.1,0.4-2.8,1.2c-0.9,1-1.1,2-1.1,5.8s0.2,4.8,1.1,5.8
		c0.7,0.7,1.7,1.2,2.8,1.2c1.1,0,2.1-0.4,2.8-1.2c0.9-1,1.1-2,1.1-5.8S422.9,50.5,422,49.5 M424.1,62.8c-1.3,1.3-2.9,2-4.9,2
		c-2,0-3.6-0.7-4.9-2c-1.8-1.8-1.8-3.9-1.8-7.5c0-3.6,0-5.7,1.8-7.5c1.3-1.3,2.9-2,4.9-2c2,0,3.6,0.7,4.9,2c1.8,1.8,1.8,3.9,1.8,7.5
		C425.9,58.9,426,60.9,424.1,62.8"/>
	<path class="st5" d="M439.7,48.5h-4.2v5.8h4.2c1.9,0,3.2-1.1,3.2-2.9C442.9,49.6,441.6,48.5,439.7,48.5 M443,64.6l-3.9-7.8h-3.5
		v7.8h-2.8V46h7.2c3.5,0,5.8,2.3,5.8,5.4c0,2.7-1.6,4.4-3.7,4.9l4.3,8.2H443z"/>
	<polygon class="st5" points="463.7,64.6 458.4,55.4 455.3,59.2 455.3,64.6 452.5,64.6 452.5,46 455.3,46 455.3,55.3 462.9,46 
		466.4,46 460.3,53.3 467,64.6 	"/>
</g>
</svg>
